<?xml version="1.0" encoding="UTF-8"?>
<!DOCTYPE svg PUBLIC "-//W3C//DTD SVG 1.1//EN" "http://www.w3.org/Graphics/SVG/1.1/DTD/svg11.dtd">
<svg xmlns="http://www.w3.org/2000/svg" version="1.1" width="512px" height="512px" style="shape-rendering:geometricPrecision; text-rendering:geometricPrecision; image-rendering:optimizeQuality; fill-rule:evenodd; clip-rule:evenodd" xmlns:xlink="http://www.w3.org/1999/xlink">
<g><path style="opacity:0.986" fill="#e54334" d="M 170.5,225.5 C 153.452,211.784 136.118,198.45 118.5,185.5C 136.46,148.377 164.794,122.543 203.5,108C 256.823,90.0385 306.49,97.0385 352.5,129C 356.299,131.797 359.799,134.964 363,138.5C 363.667,139.167 363.667,139.833 363,140.5C 348.471,154.695 334.304,169.195 320.5,184C 319.5,184.667 318.5,184.667 317.5,184C 285.646,158.223 251.312,154.557 214.5,173C 193.814,185.514 179.148,203.014 170.5,225.5 Z"/></g>
<g><path style="opacity:0.988" fill="#f5b604" d="M 118.5,185.5 C 136.118,198.45 153.452,211.784 170.5,225.5C 165.167,245.5 165.167,265.5 170.5,285.5C 153.476,299.185 136.143,312.519 118.5,325.5C 103.738,296.595 98.571,265.928 103,233.5C 105.294,216.455 110.46,200.455 118.5,185.5 Z"/></g>
<g><path style="opacity:0.99" fill="#427fee" d="M 362.5,374.5 C 345.809,361.148 328.809,348.148 311.5,335.5C 327.79,323.856 338.123,308.189 342.5,288.5C 314.5,288.5 286.5,288.5 258.5,288.5C 258.5,268.167 258.5,247.833 258.5,227.5C 308.072,227.169 357.572,227.503 407,228.5C 413.991,269.909 407.324,308.909 387,345.5C 380.24,356.351 372.074,366.017 362.5,374.5 Z"/></g>
<g><path style="opacity:0.994" fill="#34a353" d="M 170.5,285.5 C 189.152,330.933 223.152,352.1 272.5,349C 286.486,347.172 299.486,342.672 311.5,335.5C 328.809,348.148 345.809,361.148 362.5,374.5C 333.386,400.546 299.052,413.213 259.5,412.5C 202.57,411.125 158.07,387.125 126,340.5C 122.962,335.757 120.462,330.757 118.5,325.5C 136.143,312.519 153.476,299.185 170.5,285.5 Z"/></g>
</svg>
